<?xml version="1.0" standalone="no"?>
<!DOCTYPE svg PUBLIC "-//W3C//DTD SVG 20010904//EN"
 "http://www.w3.org/TR/2001/REC-SVG-20010904/DTD/svg10.dtd">
<svg version="1.0" xmlns="http://www.w3.org/2000/svg"
 width="499.000000pt" height="499.000000pt" viewBox="0 0 499.000000 499.000000"
 preserveAspectRatio="xMidYMid meet">

<g transform="translate(0.000000,499.000000) scale(0.100000,-0.100000)"
fill="#000000" stroke="none">
<path d="M2160 3804 c-47 -9 -155 -47 -205 -72 -61 -30 -182 -109 -192 -125
-4 -6 7 -2 23 10 89 62 271 123 368 123 232 0 431 -193 536 -517 53 -165 85
-375 110 -723 6 -80 15 -181 20 -225 38 -327 33 -451 -25 -569 -57 -116 -102
-156 -178 -156 -61 0 -121 30 -207 104 -119 102 -165 99 -305 -20 -111 -94
-173 -125 -253 -125 -66 -1 -106 16 -181 77 -54 43 -70 42 -186 -18 -89 -45
-177 -78 -210 -78 -12 0 -34 11 -48 25 l-25 26 -7 -39 c-7 -45 1 -105 22 -144
30 -60 115 -51 278 31 153 77 175 79 253 15 77 -63 113 -77 188 -72 84 5 169
49 269 139 90 80 139 109 187 109 40 0 101 -31 148 -75 109 -102 205 -145 279
-125 49 13 119 87 156 166 57 120 65 228 40 504 -9 91 -24 278 -35 415 -30
370 -49 509 -96 685 -80 303 -233 528 -419 617 -75 35 -87 38 -180 39 -55 1
-111 0 -125 -2z"/>
<path d="M2148 3325 c-38 -21 -77 -108 -85 -187 -15 -170 67 -274 148 -187 79
85 83 320 7 373 -27 19 -35 19 -70 1z"/>
<path d="M1735 3285 c-47 -50 -70 -123 -70 -225 0 -70 4 -94 25 -135 14 -27
37 -57 52 -65 25 -13 31 -13 63 4 26 14 44 37 68 85 29 59 32 74 32 156 0 99
-13 150 -50 189 -35 38 -79 35 -120 -9z"/>
<path d="M2092 2535 c-29 -7 -110 -21 -179 -31 l-125 -18 4 -63 c5 -72 26
-103 93 -134 54 -25 100 -24 160 5 95 44 150 138 126 218 -7 21 -15 38 -19 37
-4 -1 -31 -7 -60 -14z"/>
</g>
</svg>
